<svg width="6258" height="3627" viewBox="0 0 6258 3627" fill="none" xmlns="http://www.w3.org/2000/svg">
<path d="M4140.23 1352.87C4268.87 1310.69 4401.37 1278.06 4540.2 1235.88C4692.01 1293.67 4697.11 1340.48 4553.62 1387.37C4414.46 1432.84 4270.46 1450.45 4140.23 1352.87Z" fill="#5AAF9B"/>
<path d="M4336.42 1426.18C4211.4 1348.88 4211.18 1307.11 4345.92 1263.49C4459.08 1226.85 4576.46 1211.42 4670.03 1316.46C4557.58 1365.39 4447 1395.78 4336.42 1426.18Z" fill="url(#paint0_linear_16_41)"/>
<path d="M3008.23 3145.71C2953.78 3090.62 2873.4 3041.61 2849.34 2979.39C2744.01 2707 2658.58 2429.99 2558.05 2156.42C2524.23 2064.37 2450.63 1991.74 2302.61 1973.82C2301.22 1922.74 2309.28 1880.01 2317.34 1837.29C2299.12 1833.81 2280.9 1830.34 2262.68 1826.86C2121.1 1990.39 2055.53 2178.69 2009.55 2371.89C2007 2382.61 2071.06 2402.95 2104.12 2418.81C2161.26 2460.46 2218.41 2502.11 2282.39 2558.78C2298.92 2584.3 2308.61 2594.78 2318.3 2605.26C2318.3 2605.26 2317.92 2605.61 2322.08 2614.9C2393.92 2801.11 2452.38 2980.62 2532.64 3154.01C2582.98 3262.73 2666.08 3362.26 2734.49 3465.92C2734.49 3465.92 2731.39 3465.96 2735.13 3469.77C2743.99 3480.38 2750.72 3486.05 2759.04 3490.57C2797.8 3516.75 2836.55 3542.93 2864.19 3585.42C2760.29 3610.15 2667.5 3618.57 2574.71 3627C2353.82 3518.85 2350.92 3329.07 2285.24 3162.01C2218.75 2992.85 2145.8 2825.24 2062.09 2642.17C1973.74 2556.07 1921.22 2548.44 1903.3 2656.09C1869.62 2858.54 1827.77 3060.33 1802.4 3263.38C1792.26 3344.5 1763.96 3390.95 1652.88 3388.91C1492.46 3363.65 1557.81 3245.06 1497.24 3156.74C1476.2 3069.09 1464.7 2999.28 1446.79 2890.58C1330.29 3234.54 1281.61 3273.43 1001.42 3276.56C957.27 3243.71 913.123 3210.87 858.912 3164.04C831.397 3109.64 813.946 3069.22 785.191 3002.64C701.177 3213.87 663.442 3429.54 314.693 3412.25C314.693 3412.25 316.588 3411.53 313.109 3405.72C298.929 3395.33 288.227 3390.74 277.524 3386.16C66.4574 3282.14 44.9885 3104.25 20.3392 2940.96C-19.0745 2679.86 -7.54612 2416.95 111.667 2164.62C207.26 1962.28 395.184 1889.72 662.998 1952.33C754.252 1973.66 844.57 1997.42 936.642 2042.46C962.741 2419.09 999.753 2771.57 1196.02 3104.85C1200.61 3085.03 1205.2 3065.21 1209.79 3045.39C1315.52 2881.56 1383.39 2715.39 1361.85 2524.47C1315.33 2112.1 1279.19 1698.66 1258.53 1285.07C1250.62 1126.77 1292.57 966.408 1320.2 807.874C1330 751.634 1357.76 695.463 1389.27 643.672C1504.4 454.477 1682.15 431.443 1881.38 589.434C1896.8 606.473 1901.55 612.451 1905.4 618.858C1905.4 618.858 1903.02 618.633 1903.03 628.829C1925.52 797.726 1988.19 960.638 1961.67 1114.21C1914.04 1389.94 1832.07 1664.57 1728.75 1931.28C1620.75 2210.05 1599 2400.55 1721.92 2682.34C1740.14 2589.18 1758.03 2497.74 1775.92 2406.29C1844.09 2245.82 1896.53 2079.89 1984.29 1926.21C2101.62 1720.76 2234.65 1690.14 2487.83 1785.49C2478.39 1653.95 2453 1525.14 2463.28 1398.09C2486.6 1109.9 2524.71 822.337 2563.6 535.077C2571.18 479.014 2600.19 421.499 2635.38 371.513C2741.51 220.769 2937.97 203.695 3108.19 345.244C3148.09 485.423 3206.98 606.398 3209.03 727.955C3216.35 1161.37 3127.36 1581.88 2873.46 1974.66C2852.92 2006.44 2852.23 2053.17 2863.31 2089.02C2940.63 2339.13 3022.83 2588.33 3105.56 2837.41C3113.87 2862.44 3136.1 2884.67 3165.14 2928C3165.14 2844.22 3165.14 2786.93 3165.14 2729.64C3207.38 2491.84 3244.43 2253.36 3294.94 2016.63C3310.48 1943.79 3352.18 1870.9 3400.33 1806.38C3520.25 1645.69 3691.11 1633.9 3867.85 1786.48C3896.4 1986.16 3916.12 2166.85 3941.33 2347.07C3973.92 2580.05 4003.85 2813.53 4051.15 3044.79C4062.38 3099.69 4138.12 3146.59 4184.19 3197.17C4240.43 3026.19 4333.61 2856.65 4344.67 2683.92C4363.64 2387.81 4336.19 2089.5 4315.98 1792.62C4312.28 1738.27 4250.34 1686.33 4212.22 1628.66C4322.91 1535.05 4550.94 1512.53 4685.22 1605.27C4659.78 1664.46 4626.33 1709.87 4631.38 1752.52C4658.05 1977.46 4684.69 2202.94 4731.57 2425.65C4754.69 2535.48 4821.42 2639.75 4868.42 2746.54C4876.97 2752.94 4885.52 2759.33 4905.79 2775.32C4917.51 2784.92 4914.57 2784.09 4914.57 2784.09C5045.95 2813.76 5072.83 2731.03 5103.12 2668.33C5216.81 2433.02 5207.84 2195.22 5143.14 1949.67C5009.52 1442.65 5008.14 932.674 5154.84 426.031C5183.51 327.026 5230.97 229.391 5287.12 137.56C5389.39 -29.709 5539.09 -46.6813 5727.72 98.9946C5746.91 170.994 5765.09 223.24 5768.75 276.095C5797.44 690.414 5672.84 1079.69 5456.02 1455.57C5415.97 1525.01 5392.71 1609.72 5401.12 1684.71C5417.46 1830.43 5450.26 1976.61 5498.11 2118.12C5536.29 2231.03 5606.93 2337.29 5663.16 2446.5C5700.7 2490.28 5738.74 2533.8 5775.64 2577.91C5812.33 2621.78 5847.88 2666.24 5909.78 2742.14C5966.97 2665.3 6027.93 2615.22 6042.44 2558C6087.79 2379.06 6115.68 2197.44 6150.16 2016.84C6162.98 1949.69 6175.33 1882.47 6229.43 1815.83C6238.36 1838.84 6247.28 1861.85 6258 1905.14C6244.96 2079.04 6246 2234.81 6212 2385.81C6140.69 2702.51 6133.93 2890.05 5664.12 2846.34C5567.23 2759.51 5470.35 2672.68 5362.76 2571.52C5338.5 2525.64 5324.94 2494.07 5303.52 2444.19C5197.05 2772.49 5122.56 2954.24 4730.24 2928.45C4730.24 2928.45 4732.94 2927.85 4729.04 2923.28C4718.22 2911.51 4709.27 2906.52 4698.29 2903.74C4670.72 2888.43 4643.15 2873.12 4597.79 2846.65C4554.37 2798.03 4528.74 2760.56 4483.61 2694.57C4459.78 2835.76 4441.54 2943.98 4423.25 3052.19C4379.8 3309.23 4300.43 3362.37 3967.54 3357.38C3775.14 3257.83 3729.25 3097.87 3704.61 2938.53C3658.76 2642.13 3630.53 2344.08 3592.85 2024.46C3584.33 1949.95 3577.93 1897.72 3571.54 1845.48C3556.99 1845.05 3542.44 1844.62 3527.88 1844.19C3494.63 1918.77 3440.95 1991.86 3431.75 2068.2C3397.21 2354.88 3369.09 2642.37 3354.31 2930.05C3342.78 3154.34 3324.89 3176.45 3039.87 3170.38C3039.87 3170.38 3042.13 3169.73 3038.35 3165.07C3028.03 3153.08 3019.25 3148.18 3008.23 3145.71ZM5635.11 170.1C5618.25 149.545 5601.4 128.989 5584.54 108.434C5558.99 134.873 5521.94 158.431 5509.65 188.191C5364.31 540.219 5381.68 902.737 5421.16 1269.85C5444.05 1204.91 5466.94 1139.97 5510.12 1062.67C5534.12 998.995 5565.7 936.385 5580.73 871.451C5632.77 646.598 5719.78 422.966 5635.11 170.1ZM554.293 2155.56C530.174 2134.69 506.055 2113.82 463.562 2077.05C272.589 2466.6 260.42 2834.25 435.698 3235.25C463.629 3189.9 475.04 3171.37 494.004 3131.39C537.5 2885.68 588.536 2640.55 619.759 2393.9C628.769 2322.72 580.792 2247.16 554.293 2155.56ZM1685.59 1754.38C1745.8 1516.94 1821.74 1280.99 1859.24 1041.4C1876.67 930.044 1819.41 811.604 1794.66 677.655C1714.63 560.901 1686.43 634.745 1657.14 700.596C1543.46 956.146 1521.22 1620.96 1624.12 1928.33C1643.97 1861.81 1657.76 1815.58 1685.59 1754.38ZM2984.39 411.46C2969.65 393.881 2954.91 376.303 2940.18 358.724C2916.96 379.836 2877.72 399.012 2873.07 422.365C2837.24 602.318 2788.88 782.591 2781.27 963.704C2768.81 1260.07 2784.22 1557.14 2787.87 1853.92C2808.18 1854.54 2828.5 1855.17 2848.81 1855.79C2860.06 1809.59 2871.3 1763.4 2894.61 1701.06C2955.18 1439.23 3038.32 1178.93 3067.84 914.987C3085.56 756.595 3019.56 592.525 2984.39 411.46Z" fill="url(#paint1_linear_16_41)"/>
<defs>
<linearGradient id="paint0_linear_16_41" x1="4456.88" y1="1235.88" x2="4456.88" y2="1426.18" gradientUnits="userSpaceOnUse">
<stop stop-color="#84FEE1"/>
<stop offset="1" stop-color="#DA7587" stop-opacity="0"/>
</linearGradient>
<linearGradient id="paint1_linear_16_41" x1="3129" y1="0" x2="3129" y2="3627" gradientUnits="userSpaceOnUse">
<stop stop-color="#368AD9"/>
<stop offset="0.0001" stop-color="#A23E92"/>
<stop offset="1" stop-color="#80FDDF"/>
</linearGradient>
</defs>
</svg>
